<svg xmlns="http://www.w3.org/2000/svg" width="1920" height="937" style="cursor: move;"><g transform="translate(-67.21165645865972,6.096632554878397) scale(1)"><path class="link" marker-end="" d="M889,415.5, 982,415.5" style="stroke-width: 0.89; stroke-opacity: 0.93; stroke: rgb(80, 80, 80);"></path><path class="link" marker-end="" d="M889,415.5, 982,457.5" style="stroke-width: 0.89; stroke-opacity: 0.93; stroke: rgb(80, 80, 80);"></path><path class="link" marker-end="" d="M889,415.5, 982,499.5" style="stroke-width: 0.89; stroke-opacity: 0.93; stroke: rgb(80, 80, 80);"></path><path class="link" marker-end="" d="M889,415.5, 982,541.5" style="stroke-width: 0.89; stroke-opacity: 0.93; stroke: rgb(80, 80, 80);"></path><path class="link" marker-end="" d="M889,457.5, 982,415.5" style="stroke-width: 0.89; stroke-opacity: 0.93; stroke: rgb(80, 80, 80);"></path><path class="link" marker-end="" d="M889,457.5, 982,457.5" style="stroke-width: 0.89; stroke-opacity: 0.93; stroke: rgb(80, 80, 80);"></path><path class="link" marker-end="" d="M889,457.5, 982,499.5" style="stroke-width: 0.89; stroke-opacity: 0.93; stroke: rgb(80, 80, 80);"></path><path class="link" marker-end="" d="M889,457.5, 982,541.5" style="stroke-width: 0.89; stroke-opacity: 0.93; stroke: rgb(80, 80, 80);"></path><path class="link" marker-end="" d="M889,499.5, 982,415.5" style="stroke-width: 0.89; stroke-opacity: 0.93; stroke: rgb(80, 80, 80);"></path><path class="link" marker-end="" d="M889,499.5, 982,457.5" style="stroke-width: 0.89; stroke-opacity: 0.93; stroke: rgb(80, 80, 80);"></path><path class="link" marker-end="" d="M889,499.5, 982,499.5" style="stroke-width: 0.89; stroke-opacity: 0.93; stroke: rgb(80, 80, 80);"></path><path class="link" marker-end="" d="M889,499.5, 982,541.5" style="stroke-width: 0.89; stroke-opacity: 0.93; stroke: rgb(80, 80, 80);"></path><path class="link" marker-end="" d="M982,373.5, 1075,415.5" style="stroke-width: 0.89; stroke-opacity: 0.93; stroke: rgb(80, 80, 80);"></path><path class="link" marker-end="" d="M982,373.5, 1075,457.5" style="stroke-width: 0.89; stroke-opacity: 0.93; stroke: rgb(80, 80, 80);"></path><path class="link" marker-end="" d="M982,373.5, 1075,499.5" style="stroke-width: 0.89; stroke-opacity: 0.93; stroke: rgb(80, 80, 80);"></path><path class="link" marker-end="" d="M982,415.5, 1075,415.5" style="stroke-width: 0.89; stroke-opacity: 0.93; stroke: rgb(80, 80, 80);"></path><path class="link" marker-end="" d="M982,415.5, 1075,457.5" style="stroke-width: 0.89; stroke-opacity: 0.93; stroke: rgb(80, 80, 80);"></path><path class="link" marker-end="" d="M982,415.5, 1075,499.5" style="stroke-width: 0.89; stroke-opacity: 0.93; stroke: rgb(80, 80, 80);"></path><path class="link" marker-end="" d="M982,457.5, 1075,415.5" style="stroke-width: 0.89; stroke-opacity: 0.93; stroke: rgb(80, 80, 80);"></path><path class="link" marker-end="" d="M982,457.5, 1075,457.5" style="stroke-width: 0.89; stroke-opacity: 0.93; stroke: rgb(80, 80, 80);"></path><path class="link" marker-end="" d="M982,457.5, 1075,499.5" style="stroke-width: 0.89; stroke-opacity: 0.93; stroke: rgb(80, 80, 80);"></path><path class="link" marker-end="" d="M982,499.5, 1075,415.5" style="stroke-width: 0.89; stroke-opacity: 0.93; stroke: rgb(80, 80, 80);"></path><path class="link" marker-end="" d="M982,499.5, 1075,457.5" style="stroke-width: 0.89; stroke-opacity: 0.93; stroke: rgb(80, 80, 80);"></path><path class="link" marker-end="" d="M982,499.5, 1075,499.5" style="stroke-width: 0.89; stroke-opacity: 0.93; stroke: rgb(80, 80, 80);"></path><path class="link" marker-end="" d="M982,541.5, 1075,415.5" style="stroke-width: 0.89; stroke-opacity: 0.93; stroke: rgb(80, 80, 80);"></path><path class="link" marker-end="" d="M982,541.5, 1075,457.5" style="stroke-width: 0.89; stroke-opacity: 0.93; stroke: rgb(80, 80, 80);"></path><path class="link" marker-end="" d="M982,541.5, 1075,499.5" style="stroke-width: 0.89; stroke-opacity: 0.93; stroke: rgb(80, 80, 80);"></path><path class="link" marker-end="" d="M889,415.5, 982,373.5" style="stroke-width: 0.89; stroke-opacity: 0.93; stroke: rgb(80, 80, 80);"></path><path class="link" marker-end="" d="M889,457.5, 982,373.5" style="stroke-width: 0.89; stroke-opacity: 0.93; stroke: rgb(80, 80, 80);"></path><path class="link" marker-end="" d="M889,499.5, 982,373.5" style="stroke-width: 0.89; stroke-opacity: 0.93; stroke: rgb(80, 80, 80);"></path><circle r="11" class="node" id="0_0" cx="889" cy="415.5" style="fill: rgb(255, 255, 255); stroke: rgb(51, 51, 51);"></circle><circle r="11" class="node" id="0_1" cx="889" cy="457.5" style="fill: rgb(255, 255, 255); stroke: rgb(51, 51, 51);"></circle><circle r="11" class="node" id="0_2" cx="889" cy="499.5" style="fill: rgb(255, 255, 255); stroke: rgb(51, 51, 51);"></circle><circle r="11" class="node" id="1_0" cx="982" cy="373.5" style="fill: rgb(255, 255, 255); stroke: rgb(51, 51, 51);"></circle><circle r="11" class="node" id="1_1" cx="982" cy="415.5" style="fill: rgb(255, 255, 255); stroke: rgb(51, 51, 51);"></circle><circle r="11" class="node" id="1_2" cx="982" cy="457.5" style="fill: rgb(255, 255, 255); stroke: rgb(51, 51, 51);"></circle><circle r="11" class="node" id="1_3" cx="982" cy="499.5" style="fill: rgb(255, 255, 255); stroke: rgb(51, 51, 51);"></circle><circle r="11" class="node" id="1_4" cx="982" cy="541.5" style="fill: rgb(255, 255, 255); stroke: rgb(51, 51, 51);"></circle><circle r="11" class="node" id="2_0" cx="1075" cy="415.5" style="fill: rgb(255, 255, 255); stroke: rgb(51, 51, 51);"></circle><circle r="11" class="node" id="2_1" cx="1075" cy="457.5" style="fill: rgb(255, 255, 255); stroke: rgb(51, 51, 51);"></circle><circle r="11" class="node" id="2_2" cx="1075" cy="499.5" style="fill: rgb(255, 255, 255); stroke: rgb(51, 51, 51);"></circle><text class="text" dy=".35em" x="854" y="583.5" style="font-size: 12px;"></text><text class="text" dy=".35em" x="947" y="583.5" style="font-size: 12px;"></text><text class="text" dy=".35em" x="1040" y="583.5" style="font-size: 12px;"></text></g><defs><marker id="arrow" viewBox="0 -5 10 10" markerWidth="7" markerHeight="7" orient="auto" refX="42.8"><path d="M0,-5L10,0L0,5" style="stroke: rgb(80, 80, 80); fill: none;"></path></marker></defs></svg>